{"glyphs":{":":{"x_min":0,"x_max":278,"ha":278,"o":"m 90 418 l 90 519 l 190 519 l 190 418 z m 90 0 l 90 100 l 190 100 l 190 0 z"},"$":{"x_min":0,"x_max":556,"ha":556,"o":"m 249 -103 l 249 -15 q 183 -7 142 14 q 101 36 71 83 q 41 130 36 199 l 124 215 q 134 145 160 111 q 197 64 249 59 l 249 339 q 195 349 138 381 q 96 404 73 446 q 51 487 51 540 q 51 634 117 692 q 162 731 249 740 l 249 782 l 301 782 l 301 740 q 377 732 422 695 q 480 647 492 563 l 401 550 q 393 602 368 629 q 344 657 301 666 l 301 412 q 367 396 389 386 q 430 368 456 342 q 481 316 495 281 q 509 245 509 204 q 509 112 451 51 q 393 -10 301 -14 l 301 -103 z m 249 667 q 198 659 168 625 q 139 592 139 547 q 139 502 164 472 q 189 441 249 423 z m 301 59 q 352 65 385 104 q 419 142 419 198 q 419 246 395 275 q 372 304 301 327 z"},"?":{"x_min":0,"x_max":556,"ha":556,"o":"m 230 176 q 230 194 230 203 q 230 254 245 292 q 255 320 279 349 q 297 370 343 410 q 388 451 402 475 q 416 499 416 527 q 416 578 375 617 q 335 656 277 656 q 221 656 184 621 q 146 585 134 511 l 44 521 q 56 622 116 675 q 177 728 276 728 q 381 728 443 671 q 506 614 506 533 q 506 486 484 446 q 462 407 398 350 q 355 312 342 294 q 329 276 322 252 q 316 229 315 176 z m 225 0 l 225 100 l 325 100 l 325 0 z"},"<":{"x_min":0,"x_max":584,"ha":584,"o":"m 55 313 l 55 395 l 529 595 l 529 508 l 153 354 l 529 198 l 529 110 z"},"'":{"x_min":0,"x_max":191,"ha":191,"o":"m 66 462 l 44 596 l 44 716 l 144 716 l 144 596 l 121 462 z"},"=":{"x_min":0,"x_max":584,"ha":584,"o":"m 528 421 l 56 421 l 56 503 l 528 503 z m 528 204 l 56 204 l 56 286 l 528 286 z"},"a":{"x_min":0,"x_max":556,"ha":556,"o":"m 404 64 q 355 22 310 5 q 265 -12 213 -12 q 128 -12 82 30 q 36 72 36 137 q 36 175 53 206 q 71 238 99 257 q 127 276 162 286 q 188 292 240 299 q 347 312 397 329 q 397 347 397 352 q 397 406 373 428 q 339 458 272 458 q 210 458 181 436 q 151 414 137 359 l 51 371 q 63 426 90 460 q 117 494 167 512 q 218 530 285 530 q 352 530 393 515 q 435 499 454 475 q 474 452 481 416 q 486 393 486 334 l 486 217 q 486 95 491 62 q 497 30 514 0 l 422 0 q 408 27 404 64 z m 397 260 q 349 241 253 227 q 199 219 177 209 q 154 200 142 181 q 130 162 130 139 q 130 104 156 81 q 183 57 234 57 q 285 57 325 79 q 364 102 383 140 q 397 170 397 228 z"},"L":{"x_min":0,"x_max":556,"ha":556,"o":"m 73 0 l 73 716 l 168 716 l 168 84 l 521 84 l 521 0 z"},"3":{"x_min":0,"x_max":556,"ha":556,"o":"m 42 189 l 130 201 q 145 126 181 93 q 218 60 270 60 q 332 60 375 103 q 417 146 417 209 q 417 270 378 309 q 338 349 277 349 q 252 349 215 339 l 225 416 q 234 415 239 415 q 295 415 340 444 q 385 474 385 535 q 385 583 353 615 q 320 646 268 646 q 217 646 183 614 q 148 582 139 518 l 51 533 q 67 622 124 670 q 181 719 266 719 q 325 719 374 694 q 423 668 449 625 q 476 582 476 533 q 476 486 451 448 q 426 410 377 388 q 440 373 476 327 q 511 281 511 211 q 511 118 442 52 q 374 -13 270 -13 q 175 -13 113 43 q 51 100 42 189 z"},";":{"x_min":0,"x_max":278,"ha":278,"o":"m 89 418 l 89 519 l 189 519 l 189 418 z m 89 0 l 89 100 l 189 100 l 189 0 q 189 -55 169 -89 q 150 -123 107 -142 l 83 -104 q 111 -92 124 -68 q 137 -44 139 0 z"},"J":{"x_min":0,"x_max":500,"ha":500,"o":"m 29 203 l 114 215 q 118 133 145 103 q 172 72 221 72 q 256 72 282 89 q 308 105 318 133 q 328 161 328 223 l 328 716 l 422 716 l 422 228 q 422 138 401 89 q 379 40 332 14 q 285 -12 221 -12 q 127 -12 77 42 q 27 96 29 203 z"},"V":{"x_min":0,"x_max":667,"ha":667,"o":"m 282 0 l 4 716 l 107 716 l 293 196 q 315 133 331 79 q 347 137 369 196 l 562 716 l 659 716 l 379 0 z"},"\"":{"x_min":0,"x_max":355,"ha":355,"o":"m 70 462 l 46 599 l 46 716 l 146 716 l 146 599 l 124 462 z m 232 462 l 208 599 l 208 716 l 308 716 l 308 599 l 285 462 z"},"7":{"x_min":0,"x_max":556,"ha":556,"o":"m 47 622 l 47 707 l 511 707 l 511 638 q 442 565 375 445 q 308 324 271 197 q 245 107 238 0 l 147 0 q 149 84 181 204 q 212 324 272 435 q 331 546 398 622 z"},"S":{"x_min":0,"x_max":667,"ha":667,"o":"m 45 230 l 134 238 q 141 184 164 150 q 187 115 236 94 q 285 73 346 73 q 400 73 441 89 q 483 105 503 133 q 523 161 523 194 q 523 228 504 253 q 484 278 439 295 q 411 307 312 330 q 213 354 174 375 q 123 402 97 442 q 72 481 72 531 q 72 585 103 632 q 134 679 193 704 q 252 728 324 728 q 404 728 465 702 q 525 677 558 627 q 591 577 593 514 l 502 507 q 495 575 453 610 q 411 645 328 645 q 242 645 203 613 q 164 582 164 537 q 164 499 191 474 q 219 449 334 423 q 450 396 493 377 q 555 348 585 304 q 615 260 615 202 q 615 145 582 94 q 549 44 488 16 q 427 -12 350 -12 q 253 -12 187 16 q 122 44 84 101 q 47 158 45 230 z"},"}":{"x_min":0,"x_max":334,"ha":334,"o":"m 306 299 l 306 219 q 268 218 244 199 q 221 179 213 146 q 205 112 205 31 q 204 -51 202 -77 q 197 -118 185 -143 q 173 -167 156 -182 q 138 -197 111 -205 q 92 -210 50 -210 l 23 -210 l 23 -134 l 38 -134 q 89 -134 105 -115 q 122 -97 122 -33 q 122 89 126 122 q 134 176 158 208 q 181 241 224 259 q 168 286 145 330 q 122 374 122 479 q 122 574 120 593 q 116 625 100 638 q 84 651 38 651 l 23 651 l 23 728 l 50 728 q 98 728 120 720 q 151 709 171 684 q 192 659 198 620 q 204 582 205 494 q 205 406 213 372 q 221 339 244 319 q 268 300 306 299 z"},"Z":{"x_min":0,"x_max":611,"ha":611,"o":"m 20 0 l 20 88 l 387 546 q 426 595 461 631 l 62 631 l 62 716 l 574 716 l 574 631 l 172 135 l 129 84 l 586 84 l 586 0 z"},"x":{"x_min":0,"x_max":500,"ha":500,"o":"m 7 0 l 197 270 l 21 519 l 131 519 l 211 397 q 233 362 247 339 q 269 371 287 396 l 374 519 l 479 519 l 300 274 l 493 0 l 385 0 l 278 161 l 250 205 l 114 0 z"},")":{"x_min":0,"x_max":333,"ha":333,"o":"m 124 -210 l 61 -210 q 207 24 207 259 q 207 351 186 441 q 169 514 139 582 q 120 625 61 728 l 124 728 q 215 605 259 482 q 297 375 297 259 q 297 127 246 4 q 196 -119 124 -210 z"},"&":{"x_min":0,"x_max":667,"ha":667,"o":"m 475 84 q 432 36 380 12 q 329 -12 270 -12 q 160 -12 95 62 q 43 123 43 197 q 43 264 86 317 q 128 371 213 411 q 165 467 149 501 q 133 536 133 568 q 133 633 183 680 q 234 728 311 728 q 384 728 430 683 q 477 638 477 575 q 477 473 342 401 l 470 237 q 492 280 504 337 l 596 317 q 572 224 532 163 q 582 98 644 53 l 585 -17 q 532 18 475 84 z m 296 458 q 354 491 370 517 q 387 542 387 573 q 387 609 364 633 q 341 656 306 656 q 271 656 247 633 q 223 610 223 577 q 223 560 232 542 q 240 523 257 503 z m 420 154 l 259 354 q 188 311 163 275 q 138 238 138 203 q 138 159 172 112 q 207 65 271 65 q 310 65 352 90 q 395 115 420 154 z"},"_":{"x_min":0,"x_max":556,"ha":556,"o":"m -15 -199 l -15 -135 l 567 -135 l 567 -199 z"},"v":{"x_min":0,"x_max":500,"ha":500,"o":"m 210 0 l 13 519 l 105 519 l 217 208 q 235 158 250 104 q 262 145 283 202 l 398 519 l 488 519 l 292 0 z"},"O":{"x_min":0,"x_max":778,"ha":778,"o":"m 48 349 q 48 527 144 628 q 240 729 391 729 q 490 729 570 681 q 649 634 691 549 q 733 464 733 357 q 733 248 689 162 q 645 76 564 32 q 484 -12 391 -12 q 290 -12 210 37 q 130 85 89 170 q 48 254 48 349 z m 146 347 q 146 218 216 143 q 285 69 390 69 q 497 69 566 144 q 635 219 635 357 q 635 445 606 510 q 576 575 519 611 q 462 647 392 647 q 291 647 219 578 q 146 509 146 347 z"},"(":{"x_min":0,"x_max":333,"ha":333,"o":"m 234 -210 q 161 -119 111 4 q 61 127 61 259 q 61 375 98 482 q 142 605 234 728 l 297 728 q 238 626 219 583 q 189 516 172 442 q 151 351 151 259 q 151 24 297 -210 z"},"C":{"x_min":0,"x_max":722,"ha":722,"o":"m 588 251 l 683 227 q 653 110 575 49 q 498 -12 386 -12 q 271 -12 198 35 q 125 82 88 171 q 50 261 50 363 q 50 475 93 558 q 135 642 214 685 q 293 728 388 728 q 495 728 568 673 q 642 619 670 520 l 577 498 q 552 576 505 611 q 458 647 386 647 q 303 647 248 607 q 192 568 170 501 q 147 435 147 364 q 147 272 174 204 q 201 136 257 103 q 313 69 378 69 q 458 69 513 115 q 568 161 588 251 z"},"W":{"x_min":0,"x_max":944,"ha":944,"o":"m 202 0 l 12 716 l 109 716 l 218 247 q 236 173 249 100 q 276 215 281 232 l 417 716 l 531 716 l 634 354 q 672 219 689 100 q 703 168 725 256 l 837 716 l 933 716 l 736 0 l 645 0 l 494 545 q 475 614 472 629 q 460 580 451 545 l 299 0 z"},"A":{"x_min":0,"x_max":667,"ha":667,"o":"m -1 0 l 273 716 l 375 716 l 668 0 l 561 0 l 477 217 l 178 217 l 99 0 z m 205 294 l 448 294 l 373 492 q 339 583 322 641 q 309 572 284 504 z"},"f":{"x_min":0,"x_max":278,"ha":278,"o":"m 87 0 l 87 450 l 9 450 l 9 519 l 87 519 l 87 574 q 87 626 96 651 q 109 686 141 707 q 173 728 230 728 q 268 728 312 719 l 299 643 q 272 647 248 647 q 208 647 191 630 q 174 613 174 566 l 174 519 l 275 519 l 275 450 l 174 450 l 174 0 z"},"Q":{"x_min":0,"x_max":778,"ha":778,"o":"m 620 77 q 686 31 741 10 l 713 -56 q 636 -28 560 32 q 480 -12 384 -12 q 287 -12 208 35 q 128 82 86 167 q 43 251 43 358 q 43 464 86 551 q 129 638 208 683 q 288 729 386 729 q 485 729 564 681 q 644 634 686 550 q 728 465 728 358 q 728 270 701 199 q 674 129 620 77 z m 411 198 q 493 175 546 129 q 630 206 630 358 q 630 445 600 510 q 571 575 514 611 q 457 647 386 647 q 280 647 210 574 q 141 502 141 358 q 141 218 210 144 q 279 69 386 69 q 437 69 482 88 q 438 117 388 129 z"},"w":{"x_min":0,"x_max":722,"ha":722,"o":"m 162 0 l 3 519 l 94 519 l 176 219 l 207 108 q 209 116 234 215 l 316 519 l 407 519 l 484 218 l 510 119 l 540 219 l 629 519 l 714 519 l 552 0 l 461 0 l 378 311 l 358 399 l 253 0 z"},"-":{"x_min":0,"x_max":333,"ha":333,"o":"m 32 215 l 32 303 l 302 303 l 302 215 z"},"E":{"x_min":0,"x_max":667,"ha":667,"o":"m 79 0 l 79 716 l 597 716 l 597 631 l 174 631 l 174 412 l 570 412 l 570 328 l 174 328 l 174 84 l 613 84 l 613 0 z"},"s":{"x_min":0,"x_max":500,"ha":500,"o":"m 31 155 l 118 168 q 125 116 158 88 q 192 61 252 61 q 312 61 342 85 q 371 110 371 143 q 371 173 345 190 q 327 202 255 220 q 159 244 121 262 q 84 280 65 311 q 45 343 45 381 q 45 416 61 445 q 77 475 104 494 q 125 509 160 520 q 196 530 236 530 q 297 530 344 513 q 390 495 412 465 q 434 435 442 385 l 356 373 q 350 413 322 436 q 294 458 243 458 q 182 458 156 438 q 130 418 130 391 q 130 374 141 360 q 152 346 175 337 q 188 332 252 314 q 346 290 383 274 q 419 258 440 228 q 461 197 461 152 q 461 108 436 70 q 410 31 362 10 q 313 -12 252 -12 q 151 -12 98 30 q 45 72 31 155 z"},">":{"x_min":0,"x_max":584,"ha":584,"o":"m 529 313 l 55 110 l 55 198 l 430 354 l 55 508 l 55 595 l 529 395 z"},"l":{"x_min":0,"x_max":222,"ha":222,"o":"m 64 0 l 64 716 l 152 716 l 152 0 z"},"8":{"x_min":0,"x_max":556,"ha":556,"o":"m 177 388 q 122 408 96 445 q 69 482 69 534 q 69 612 125 666 q 182 719 275 719 q 369 719 426 664 q 483 610 483 532 q 483 482 457 445 q 431 408 377 388 q 443 367 478 319 q 512 271 512 205 q 512 113 447 50 q 382 -12 276 -12 q 170 -12 105 51 q 41 113 41 207 q 41 277 76 324 q 111 371 177 388 z m 159 537 q 159 486 192 454 q 225 422 277 422 q 328 422 360 454 q 393 486 393 532 q 393 581 359 614 q 326 646 276 646 q 226 646 192 614 q 159 582 159 537 z m 131 207 q 131 169 149 134 q 167 99 202 79 q 237 60 277 60 q 340 60 381 101 q 422 141 422 204 q 422 267 380 309 q 338 350 274 350 q 212 350 172 309 q 131 268 131 207 z"},"\\":{"x_min":0,"x_max":278,"ha":278,"o":"m 208 -12 l 0 728 l 71 728 l 278 -12 z"},"e":{"x_min":0,"x_max":556,"ha":556,"o":"m 421 167 l 512 156 q 490 76 432 32 q 374 -12 284 -12 q 170 -12 103 58 q 37 128 37 255 q 37 386 104 458 q 171 530 279 530 q 383 530 449 459 q 515 389 515 260 q 515 252 514 237 l 127 237 q 132 151 176 106 q 219 61 284 61 q 333 61 367 86 q 401 111 421 167 z m 132 309 l 422 309 q 416 375 389 407 q 347 458 280 458 q 219 458 178 417 q 137 377 132 309 z"},"b":{"x_min":0,"x_max":556,"ha":556,"o":"m 147 0 l 65 0 l 65 716 l 153 716 l 153 460 q 209 530 295 530 q 343 530 386 511 q 429 492 456 457 q 484 422 500 373 q 515 323 515 267 q 515 134 449 61 q 383 -12 291 -12 q 199 -12 147 65 z m 146 263 q 146 170 171 128 q 213 61 284 61 q 341 61 383 111 q 425 161 425 260 q 425 361 385 410 q 345 458 288 458 q 230 458 188 408 q 146 358 146 263 z"},"%":{"x_min":0,"x_max":889,"ha":889,"o":"m 58 544 q 58 621 97 674 q 135 728 208 728 q 276 728 320 680 q 364 632 364 539 q 364 448 320 399 q 275 350 209 350 q 145 350 101 398 q 58 446 58 544 z m 211 667 q 178 667 156 639 q 135 611 135 535 q 135 466 157 438 q 179 410 211 410 q 244 410 266 438 q 288 467 288 542 q 288 611 266 639 q 244 667 211 667 z m 211 -26 l 603 728 l 674 728 l 284 -26 z m 521 168 q 521 245 560 299 q 598 352 672 352 q 739 352 783 304 q 828 256 828 163 q 828 72 783 23 q 738 -26 672 -26 q 607 -26 564 22 q 521 71 521 168 z m 674 292 q 641 292 619 263 q 598 235 598 159 q 598 91 620 62 q 642 34 674 34 q 708 34 729 62 q 751 91 751 166 q 751 235 729 263 q 707 292 674 292 z"},"m":{"x_min":0,"x_max":833,"ha":833,"o":"m 66 0 l 66 519 l 145 519 l 145 446 q 169 484 209 507 q 250 530 302 530 q 359 530 396 506 q 433 482 448 439 q 510 530 608 530 q 686 530 727 488 q 769 445 769 356 l 769 0 l 681 0 l 681 327 q 681 379 673 403 q 664 426 642 440 q 619 454 589 454 q 534 454 498 418 q 462 381 462 301 l 462 0 l 374 0 l 374 337 q 374 396 353 425 q 331 454 282 454 q 245 454 214 435 q 182 415 168 377 q 154 340 154 269 l 154 0 z"},"#":{"x_min":0,"x_max":556,"ha":556,"o":"m 50 -12 l 93 196 l 10 196 l 10 269 l 107 269 l 144 446 l 10 446 l 10 519 l 158 519 l 201 728 l 274 728 l 231 519 l 385 519 l 428 728 l 501 728 l 459 519 l 543 519 l 543 446 l 444 446 l 408 269 l 543 269 l 543 196 l 393 196 l 351 -12 l 277 -12 l 319 196 l 166 196 l 124 -12 z m 181 269 l 334 269 l 371 446 l 217 446 z"},",":{"x_min":0,"x_max":278,"ha":278,"o":"m 89 0 l 89 100 l 189 100 l 189 0 q 189 -55 169 -89 q 150 -123 107 -142 l 83 -104 q 111 -92 124 -68 q 137 -44 139 0 z"},"n":{"x_min":0,"x_max":556,"ha":556,"o":"m 66 0 l 66 519 l 145 519 l 145 445 q 202 530 310 530 q 357 530 396 513 q 436 497 455 469 q 475 442 482 404 q 487 380 487 319 l 487 0 l 399 0 l 399 315 q 399 369 389 396 q 379 422 353 438 q 327 454 292 454 q 235 454 195 418 q 154 383 154 283 l 154 0 z"},"h":{"x_min":0,"x_max":556,"ha":556,"o":"m 66 0 l 66 716 l 154 716 l 154 459 q 215 530 309 530 q 367 530 409 508 q 452 485 470 445 q 488 405 488 329 l 488 0 l 400 0 l 400 329 q 400 395 372 425 q 343 455 291 455 q 252 455 218 434 q 183 414 168 379 q 154 345 154 284 l 154 0 z"},"z":{"x_min":0,"x_max":500,"ha":500,"o":"m 20 0 l 20 71 l 350 450 q 293 447 250 447 l 39 447 l 39 519 l 463 519 l 463 460 l 182 131 l 128 71 q 187 76 239 76 l 479 76 l 479 0 z"},"B":{"x_min":0,"x_max":667,"ha":667,"o":"m 73 0 l 73 716 l 342 716 q 424 716 473 694 q 523 672 551 627 q 579 582 579 533 q 579 487 554 446 q 529 406 479 381 q 544 362 579 316 q 614 270 614 208 q 614 157 593 114 q 571 71 540 47 q 509 24 462 12 q 415 0 346 0 z m 168 415 l 323 415 q 386 415 413 423 q 449 434 468 459 q 486 484 486 521 q 486 557 469 584 q 452 611 420 621 q 388 631 311 631 l 168 631 z m 168 84 l 346 84 q 392 84 411 88 q 443 94 465 107 q 487 121 501 147 q 516 173 516 208 q 516 248 495 277 q 475 307 438 319 q 402 331 333 331 l 168 331 z"},"K":{"x_min":0,"x_max":667,"ha":667,"o":"m 73 0 l 73 716 l 168 716 l 168 361 l 523 716 l 652 716 l 352 426 l 665 0 l 540 0 l 285 362 l 168 248 l 168 0 z"},"R":{"x_min":0,"x_max":722,"ha":722,"o":"m 79 0 l 79 716 l 396 716 q 492 716 542 697 q 591 677 621 628 q 651 580 651 521 q 651 444 602 392 q 552 340 449 326 q 487 308 506 290 q 548 252 585 195 l 709 0 l 590 0 l 496 149 q 454 213 427 248 q 400 282 379 295 q 358 309 336 314 q 320 318 283 318 l 173 318 l 173 0 z m 173 400 l 377 400 q 442 400 479 413 q 515 427 534 456 q 553 486 553 521 q 553 571 516 604 q 479 637 400 637 l 173 637 z"},"T":{"x_min":0,"x_max":611,"ha":611,"o":"m 259 0 l 259 631 l 23 631 l 23 716 l 591 716 l 591 631 l 354 631 l 354 0 z"},"P":{"x_min":0,"x_max":667,"ha":667,"o":"m 77 0 l 77 716 l 347 716 q 418 716 456 709 q 509 700 544 676 q 580 651 602 606 q 624 562 624 509 q 624 417 565 354 q 507 291 355 291 l 172 291 l 172 0 z m 172 375 l 357 375 q 449 375 487 410 q 526 444 526 506 q 526 551 503 583 q 480 615 443 625 q 419 631 355 631 l 172 631 z"},"|":{"x_min":0,"x_max":260,"ha":260,"o":"m 92 -210 l 92 728 l 168 728 l 168 -210 z"},"t":{"x_min":0,"x_max":278,"ha":278,"o":"m 258 79 l 271 1 q 233 -7 204 -7 q 156 -7 130 8 q 104 23 93 48 q 82 73 82 152 l 82 450 l 18 450 l 18 519 l 82 519 l 82 647 l 169 700 l 169 519 l 258 519 l 258 450 l 169 450 l 169 147 q 169 109 174 99 q 179 88 189 82 q 200 75 219 75 q 234 75 258 79 z"},"M":{"x_min":0,"x_max":833,"ha":833,"o":"m 74 0 l 74 716 l 217 716 l 386 209 q 410 138 420 103 q 433 142 458 218 l 630 716 l 757 716 l 757 0 l 666 0 l 666 599 l 458 0 l 373 0 l 166 609 l 166 0 z"},"g":{"x_min":0,"x_max":556,"ha":556,"o":"m 50 -43 l 135 -56 q 141 -95 165 -113 q 198 -138 254 -138 q 315 -138 349 -113 q 382 -89 394 -45 q 400 -18 400 68 q 342 0 256 0 q 149 0 91 77 q 32 154 32 262 q 32 336 59 399 q 86 462 137 496 q 188 530 257 530 q 349 530 408 456 l 408 519 l 489 519 l 489 70 q 489 -51 465 -101 q 440 -152 386 -181 q 333 -210 255 -210 q 162 -210 105 -169 q 48 -127 50 -43 z m 123 269 q 123 167 163 120 q 204 73 265 73 q 325 73 366 119 q 407 166 407 266 q 407 361 365 409 q 323 458 263 458 q 205 458 164 410 q 123 362 123 269 z"},"j":{"x_min":0,"x_max":222,"ha":222,"o":"m 65 614 l 65 716 l 153 716 l 153 614 z m -46 -201 l -29 -126 q -3 -133 12 -133 q 39 -133 52 -115 q 65 -98 65 -26 l 65 519 l 153 519 l 153 -28 q 153 -124 128 -162 q 97 -210 23 -210 q -13 -210 -46 -201 z"},"i":{"x_min":0,"x_max":222,"ha":222,"o":"m 66 615 l 66 716 l 154 716 l 154 615 z m 66 0 l 66 519 l 154 519 l 154 0 z"},"y":{"x_min":0,"x_max":500,"ha":500,"o":"m 62 -200 l 52 -117 q 81 -125 103 -125 q 132 -125 149 -115 q 167 -105 178 -88 q 187 -75 205 -22 q 208 -15 213 -1 l 16 519 l 111 519 l 219 218 q 240 161 256 98 q 271 159 292 216 l 403 519 l 491 519 l 294 -9 q 262 -94 245 -126 q 221 -170 191 -190 q 161 -210 119 -210 q 93 -210 62 -200 z"},"@":{"x_min":0,"x_max":1015,"ha":1015,"o":"m 567 80 q 535 43 496 21 q 457 -1 417 -1 q 374 -1 333 24 q 292 49 266 102 q 240 155 240 218 q 240 295 280 373 q 320 451 379 490 q 438 529 494 529 q 536 529 575 507 q 613 485 641 439 l 658 515 l 745 515 l 675 188 q 660 119 660 112 q 660 99 670 89 q 680 80 694 80 q 720 80 762 109 q 818 148 850 214 q 883 280 883 350 q 883 431 841 502 q 799 573 717 615 q 634 658 534 658 q 419 658 325 604 q 230 551 178 451 q 126 351 126 237 q 126 117 178 31 q 230 -56 329 -97 q 427 -138 547 -138 q 675 -138 761 -95 q 848 -52 891 9 l 979 9 q 954 -42 894 -95 q 833 -148 750 -179 q 666 -210 548 -210 q 440 -210 348 -183 q 257 -155 192 -99 q 128 -43 95 30 q 54 122 54 229 q 54 348 103 456 q 163 588 272 659 q 382 729 538 729 q 659 729 756 679 q 852 630 908 532 q 955 447 955 348 q 955 207 855 97 q 767 -2 661 -2 q 627 -2 607 8 q 586 19 576 38 q 570 50 567 80 z m 331 212 q 331 145 362 108 q 394 71 435 71 q 462 71 493 87 q 523 104 551 136 q 578 168 596 218 q 613 267 613 317 q 613 383 580 420 q 547 457 500 457 q 469 457 441 441 q 414 425 388 390 q 362 354 346 304 q 331 254 331 212 z"},".":{"x_min":0,"x_max":278,"ha":278,"o":"m 91 0 l 91 100 l 191 100 l 191 0 z"},"p":{"x_min":0,"x_max":556,"ha":556,"o":"m 66 -199 l 66 519 l 146 519 l 146 451 q 174 491 210 510 q 246 530 296 530 q 363 530 414 496 q 464 462 490 400 q 516 337 516 263 q 516 184 488 120 q 459 56 405 22 q 350 -12 290 -12 q 246 -12 211 7 q 176 25 154 54 l 154 -199 z m 146 256 q 146 156 186 108 q 227 61 284 61 q 343 61 385 110 q 426 160 426 264 q 426 363 385 412 q 345 461 288 461 q 232 461 189 409 q 146 356 146 256 z"},"X":{"x_min":0,"x_max":667,"ha":667,"o":"m 4 0 l 281 373 l 37 716 l 150 716 l 280 532 q 320 475 337 444 q 361 483 394 526 l 538 716 l 641 716 l 390 378 l 661 0 l 543 0 l 363 255 q 348 277 332 303 q 308 264 298 250 l 118 0 z"},"*":{"x_min":0,"x_max":389,"ha":389,"o":"m 31 584 l 54 654 q 131 626 167 606 q 157 695 157 728 l 228 728 q 226 680 216 607 q 267 632 332 654 l 354 584 q 292 564 232 557 q 262 531 316 465 l 258 423 q 229 462 191 528 q 155 459 127 423 l 70 465 q 126 535 151 557 q 88 569 31 584 z"},"Y":{"x_min":0,"x_max":667,"ha":667,"o":"m 279 0 l 279 303 l 3 716 l 118 716 l 259 500 q 298 439 332 379 q 364 435 410 505 l 549 716 l 659 716 l 374 303 l 374 0 z"},"c":{"x_min":0,"x_max":500,"ha":500,"o":"m 404 190 l 491 179 q 477 89 418 39 q 360 -12 275 -12 q 168 -12 104 58 q 39 127 39 257 q 39 341 67 404 q 95 467 152 499 q 208 530 275 530 q 360 530 414 488 q 467 445 482 366 l 397 353 q 385 405 354 432 q 323 458 279 458 q 212 458 171 410 q 129 363 129 260 q 129 155 169 108 q 209 61 274 61 q 326 61 360 92 q 395 124 404 190 z"},"!":{"x_min":0,"x_max":278,"ha":278,"o":"m 113 178 l 86 557 l 86 716 l 195 716 l 195 557 l 169 178 z m 90 0 l 90 100 l 191 100 l 191 0 z"},"/":{"x_min":0,"x_max":278,"ha":278,"o":"m 0 -12 l 208 728 l 278 728 l 71 -12 z"},"[":{"x_min":0,"x_max":278,"ha":278,"o":"m 68 -199 l 68 716 l 262 716 l 262 643 l 156 643 l 156 -126 l 262 -126 l 262 -199 z"},"6":{"x_min":0,"x_max":556,"ha":556,"o":"m 498 541 l 410 534 q 398 585 377 609 q 341 646 289 646 q 247 646 215 623 q 174 593 150 535 q 126 477 125 369 q 157 417 203 441 q 249 464 299 464 q 387 464 448 400 q 510 335 510 232 q 510 165 481 107 q 452 49 401 19 q 351 -12 286 -12 q 176 -12 107 69 q 38 149 38 335 q 38 542 114 637 q 181 719 294 719 q 379 719 433 671 q 487 624 498 541 z m 139 232 q 139 187 158 145 q 177 104 212 82 q 247 60 285 60 q 340 60 380 105 q 420 150 420 227 q 420 301 381 344 q 341 387 281 387 q 222 387 180 344 q 139 301 139 232 z"},"r":{"x_min":0,"x_max":333,"ha":333,"o":"m 65 0 l 65 519 l 144 519 l 144 440 q 174 495 200 513 q 226 530 256 530 q 301 530 347 502 l 316 420 q 284 439 252 439 q 223 439 200 422 q 177 405 167 374 q 153 327 153 271 l 153 0 z"},"2":{"x_min":0,"x_max":556,"ha":556,"o":"m 503 84 l 503 0 l 30 0 q 29 32 41 61 q 59 109 98 156 q 138 203 213 265 q 330 360 371 416 q 412 472 412 522 q 412 574 375 610 q 337 646 277 646 q 214 646 176 608 q 138 570 137 502 l 47 512 q 56 613 117 666 q 177 719 279 719 q 382 719 442 662 q 502 604 502 520 q 502 477 485 436 q 467 394 427 348 q 386 302 291 222 q 212 156 189 132 q 167 108 152 84 z"},"{":{"x_min":0,"x_max":334,"ha":334,"o":"m 28 299 q 65 300 89 319 q 113 338 121 372 q 128 406 129 487 q 129 569 132 595 q 136 636 148 661 q 160 686 178 700 q 195 715 223 723 q 241 728 283 728 l 311 728 l 311 651 l 295 651 q 245 651 228 633 q 211 615 211 551 q 211 423 206 390 q 197 337 176 309 q 155 281 109 259 q 163 236 187 190 q 211 144 211 39 q 211 -56 213 -74 q 217 -107 233 -121 q 249 -134 295 -134 l 311 -134 l 311 -210 l 283 -210 q 235 -210 214 -203 q 183 -191 162 -166 q 142 -141 135 -103 q 129 -64 129 24 q 128 112 121 146 q 113 179 89 199 q 65 218 28 219 z"},"9":{"x_min":0,"x_max":556,"ha":556,"o":"m 55 166 l 139 173 q 150 114 180 87 q 210 60 258 60 q 298 60 329 79 q 359 97 379 128 q 398 159 412 212 q 425 265 425 319 q 425 325 424 337 q 398 295 352 269 q 307 243 253 243 q 165 243 103 307 q 42 372 42 477 q 42 586 106 652 q 170 719 267 719 q 336 719 394 681 q 452 644 482 574 q 512 504 512 373 q 512 235 482 154 q 453 73 394 30 q 335 -12 256 -12 q 172 -12 119 34 q 65 81 55 166 z m 415 481 q 415 557 374 602 q 334 646 277 646 q 219 646 175 598 q 132 550 132 474 q 132 406 173 363 q 214 320 275 320 q 336 320 375 363 q 415 406 415 481 z"}," ":{"x_min":0,"x_max":278,"ha":278,"o":""},"I":{"x_min":0,"x_max":278,"ha":278,"o":"m 93 0 l 93 716 l 188 716 l 188 0 z"},"H":{"x_min":0,"x_max":722,"ha":722,"o":"m 80 0 l 80 716 l 175 716 l 175 422 l 547 422 l 547 716 l 642 716 l 642 0 l 547 0 l 547 337 l 175 337 l 175 0 z"},"4":{"x_min":0,"x_max":556,"ha":556,"o":"m 323 0 l 323 171 l 13 171 l 13 252 l 339 716 l 411 716 l 411 252 l 508 252 l 508 171 l 411 171 l 411 0 z m 323 252 l 323 575 l 99 252 z"},"~":{"x_min":0,"x_max":584,"ha":584,"o":"m 42 272 l 42 372 q 94 431 178 431 q 208 431 240 422 q 272 414 332 388 q 365 374 382 370 q 399 365 416 365 q 448 365 482 384 q 516 403 542 432 l 542 329 q 511 299 479 286 q 447 273 407 273 q 377 273 351 280 q 324 287 266 312 q 208 338 170 338 q 139 338 111 325 q 83 312 42 272 z"},"D":{"x_min":0,"x_max":722,"ha":722,"o":"m 77 0 l 77 716 l 324 716 q 407 716 451 706 q 513 691 556 654 q 613 606 641 532 q 669 458 669 362 q 669 280 650 217 q 631 154 601 113 q 571 72 536 48 q 500 24 450 12 q 400 0 335 0 z m 172 84 l 325 84 q 396 84 436 98 q 476 111 500 135 q 534 168 552 225 q 571 282 571 363 q 571 476 534 536 q 498 596 445 617 q 407 631 322 631 l 172 631 z"},"^":{"x_min":0,"x_max":469,"ha":469,"o":"m 117 337 l 26 337 l 199 728 l 270 728 l 443 337 l 354 337 l 234 628 z"},"0":{"x_min":0,"x_max":556,"ha":556,"o":"m 42 353 q 42 480 68 557 q 94 635 145 677 q 197 719 275 719 q 333 719 376 696 q 419 672 448 629 q 476 585 492 522 q 508 459 508 353 q 508 227 482 150 q 457 72 405 30 q 354 -12 275 -12 q 171 -12 112 62 q 42 151 42 353 z m 132 353 q 132 177 173 118 q 214 60 275 60 q 335 60 377 119 q 418 177 418 353 q 418 530 377 588 q 335 646 274 646 q 213 646 177 595 q 132 529 132 353 z"},"F":{"x_min":0,"x_max":611,"ha":611,"o":"m 82 0 l 82 716 l 565 716 l 565 631 l 177 631 l 177 410 l 513 410 l 513 325 l 177 325 l 177 0 z"},"`":{"x_min":0,"x_max":333,"ha":333,"o":"m 227 583 l 156 583 l 43 720 l 161 720 z"},"k":{"x_min":0,"x_max":500,"ha":500,"o":"m 66 0 l 66 716 l 154 716 l 154 308 l 362 519 l 476 519 l 278 326 l 496 0 l 388 0 l 216 265 l 154 206 l 154 0 z"},"u":{"x_min":0,"x_max":556,"ha":556,"o":"m 406 0 l 406 76 q 345 -12 241 -12 q 195 -12 156 6 q 116 23 96 50 q 77 77 69 115 q 64 141 64 197 l 64 519 l 152 519 l 152 231 q 152 162 157 138 q 166 104 192 84 q 219 64 259 64 q 298 64 333 84 q 368 104 382 139 q 396 174 396 241 l 396 519 l 484 519 l 484 0 z"},"]":{"x_min":0,"x_max":278,"ha":278,"o":"m 213 -199 l 19 -199 l 19 -126 l 125 -126 l 125 643 l 19 643 l 19 716 l 213 716 z"},"U":{"x_min":0,"x_max":722,"ha":722,"o":"m 547 716 l 642 716 l 642 302 q 642 194 617 131 q 593 67 529 28 q 465 -12 362 -12 q 261 -12 197 22 q 133 57 106 123 q 79 188 79 302 l 79 716 l 173 716 l 173 303 q 173 209 191 165 q 208 121 250 97 q 292 73 354 73 q 458 73 502 121 q 547 168 547 303 z"},"o":{"x_min":0,"x_max":556,"ha":556,"o":"m 33 259 q 33 403 113 473 q 180 530 276 530 q 383 530 451 460 q 519 390 519 267 q 519 167 489 109 q 459 52 402 20 q 344 -12 276 -12 q 167 -12 100 58 q 33 128 33 259 z m 124 259 q 124 160 167 110 q 210 61 276 61 q 342 61 385 110 q 429 160 429 262 q 429 358 385 408 q 341 458 276 458 q 210 458 167 408 q 124 359 124 259 z"},"N":{"x_min":0,"x_max":722,"ha":722,"o":"m 76 0 l 76 716 l 173 716 l 549 154 l 549 716 l 640 716 l 640 0 l 543 0 l 167 562 l 167 0 z"},"+":{"x_min":0,"x_max":584,"ha":584,"o":"m 250 116 l 250 312 l 56 312 l 56 394 l 250 394 l 250 589 l 333 589 l 333 394 l 528 394 l 528 312 l 333 312 l 333 116 z"},"G":{"x_min":0,"x_max":778,"ha":778,"o":"m 412 281 l 412 365 l 715 365 l 715 100 q 646 44 571 16 q 497 -12 419 -12 q 313 -12 227 33 q 141 78 97 164 q 53 249 53 354 q 53 459 97 550 q 141 640 223 684 q 305 728 412 728 q 489 728 552 703 q 615 678 650 633 q 686 588 705 516 l 619 492 q 603 547 579 578 q 555 609 511 628 q 466 647 412 647 q 347 647 300 627 q 252 607 223 575 q 194 543 178 504 q 151 438 151 360 q 151 265 184 200 q 217 136 280 104 q 343 73 414 73 q 475 73 534 97 q 592 121 623 147 l 623 281 z"},"q":{"x_min":0,"x_max":556,"ha":556,"o":"m 396 -199 l 396 55 q 376 26 339 7 q 302 -12 261 -12 q 168 -12 102 62 q 35 136 35 264 q 35 342 62 404 q 89 466 141 498 q 192 530 254 530 q 350 530 405 449 l 405 519 l 484 519 l 484 -199 z m 125 261 q 125 161 167 111 q 209 61 268 61 q 324 61 365 108 q 405 156 405 253 q 405 356 363 409 q 320 461 262 461 q 205 461 165 412 q 125 364 125 261 z"},"d":{"x_min":0,"x_max":556,"ha":556,"o":"m 402 0 l 402 65 q 353 -12 257 -12 q 195 -12 143 22 q 91 57 63 118 q 34 179 34 259 q 34 336 60 400 q 86 463 138 497 q 189 530 253 530 q 300 530 337 510 q 374 491 396 459 l 396 716 l 484 716 l 484 0 z m 125 259 q 125 159 167 110 q 208 61 266 61 q 323 61 364 108 q 404 155 404 251 q 404 358 363 408 q 322 458 262 458 q 203 458 164 410 q 125 362 125 259 z"},"1":{"x_min":0,"x_max":556,"ha":556,"o":"m 373 0 l 285 0 l 285 560 q 253 530 201 500 q 150 469 109 454 l 109 539 q 183 574 238 623 q 293 672 316 719 l 373 719 z"},"5":{"x_min":0,"x_max":556,"ha":556,"o":"m 42 188 l 134 195 q 144 128 181 94 q 219 60 271 60 q 335 60 379 108 q 423 156 423 235 q 423 310 381 354 q 338 397 270 397 q 228 397 193 378 q 159 358 140 328 l 57 338 l 126 706 l 482 706 l 482 622 l 197 622 l 158 430 q 223 475 293 475 q 387 475 452 410 q 516 345 516 243 q 516 146 459 75 q 391 -12 271 -12 q 174 -12 112 42 q 50 97 42 188 z"}}}
